<svg aria-hidden="true" style="position: absolute; width: 0; height: 0; overflow: hidden;" version="1.1" xmlns="http://www.w3.org/2000/svg" xmlns:xlink="http://www.w3.org/1999/xlink">
<defs>
<symbol id="twitter" viewBox="0 0 32 32">
<path d="M32 6.078c-1.19 0.522-2.458 0.868-3.78 1.036 1.36-0.817 2.382-2.078 2.873-3.58l0.013-0.046c-1.197 0.723-2.591 1.274-4.076 1.574l-0.084 0.014c-1.202-1.279-2.904-2.075-4.792-2.076h-0c-3.632 0-6.556 2.948-6.556 6.562 0 0.52 0.044 1.020 0.152 1.496-5.454-0.266-10.28-2.88-13.522-6.862-0.563 0.95-0.896 2.094-0.898 3.316v0c0.002 2.263 1.148 4.257 2.891 5.437l0.023 0.015c-1.092-0.030-2.109-0.326-2.997-0.825l0.033 0.017v0.072c0 3.188 2.274 5.836 5.256 6.446-0.501 0.137-1.075 0.216-1.669 0.216-0.018 0-0.036-0-0.054-0l0.003 0c-0.031 0.001-0.067 0.001-0.103 0.001-0.403 0-0.796-0.041-1.176-0.119l0.037 0.006c0.85 2.598 3.262 4.508 6.13 4.57-2.214 1.744-5.044 2.798-8.12 2.798-0.005 0-0.010 0-0.015 0h0.001c-0.538 0-1.054-0.024-1.57-0.090 2.826 1.846 6.287 2.944 10.004 2.944 0.021 0 0.042-0 0.063-0h-0.003c12.072 0 18.672-10 18.672-18.668 0-0.29-0.010-0.57-0.024-0.848 1.299-0.937 2.391-2.066 3.258-3.359l0.030-0.047z"></path>
</symbol>
<symbol id="smartphone" viewBox="0 0 32 32">
<path d="M23 0h-14c-1.654 0-3 1.346-3 3v26c0 1.654 1.346 3 3 3h14c1.654 0 3-1.346 3-3v-26c0-1.654-1.346-3-3-3zM9 2h14c0.552 0 1 0.448 1 1v0 21h-16v-21c0-0.552 0.448-1 1-1v0zM23 30h-14c-0.552 0-1-0.448-1-1v0-3h16v3c0 0.552-0.448 1-1 1v0z"></path>
<path d="M10.707 27.478c0.391 0.365 0.391 0.956 0 1.321s-1.024 0.365-1.414 0c-0.391-0.365-0.391-0.956 0-1.321s1.024-0.365 1.414 0z"></path>
</symbol>
<symbol id="linkedin" viewBox="0 0 32 32">
<path d="M31.992 32v-0.001h0.008v-11.736c0-5.741-1.236-10.164-7.948-10.164-3.227 0-5.392 1.771-6.276 3.449h-0.093v-2.913h-6.364v21.364h6.627v-10.579c0-2.785 0.528-5.479 3.977-5.479 3.399 0 3.449 3.179 3.449 5.657v10.401h6.62zM0.528 10.636h6.635v21.364h-6.635v-21.364zM3.843 0c-2.121 0-3.843 1.721-3.843 3.843s1.721 3.879 3.843 3.879c2.121 0 3.843-1.757 3.843-3.879-0.002-2.122-1.721-3.841-3.843-3.843h-0z"></path>
</symbol>
<symbol id="instagram" viewBox="0 0 32 32">
<path d="M31.969 9.408c-0.075-1.7-0.35-2.869-0.744-3.882-0.424-1.111-1.054-2.058-1.85-2.837l-0.001-0.001c-0.779-0.792-1.724-1.419-2.778-1.826l-0.054-0.018c-1.019-0.394-2.182-0.669-3.882-0.744-1.713-0.081-2.257-0.1-6.601-0.1s-4.888 0.019-6.595 0.094c-1.7 0.075-2.869 0.35-3.882 0.744-1.111 0.424-2.058 1.053-2.837 1.849l-0.001 0.001c-0.792 0.78-1.419 1.724-1.826 2.778l-0.018 0.054c-0.394 1.019-0.669 2.182-0.744 3.882-0.081 1.713-0.1 2.257-0.1 6.601s0.019 4.888 0.094 6.595c0.075 1.7 0.35 2.869 0.744 3.882 0.427 1.11 1.056 2.057 1.849 2.837l0.001 0.001c0.78 0.792 1.724 1.419 2.778 1.826l0.054 0.018c1.019 0.394 2.182 0.669 3.882 0.744 1.706 0.075 2.25 0.094 6.595 0.094s4.888-0.019 6.595-0.094c1.7-0.075 2.869-0.35 3.882-0.744 2.157-0.85 3.832-2.525 4.663-4.627l0.019-0.055c0.394-1.019 0.669-2.182 0.744-3.882 0.075-1.707 0.094-2.251 0.094-6.595s-0.006-4.888-0.081-6.595zM29.087 22.473c-0.069 1.563-0.331 2.407-0.55 2.969-0.551 1.4-1.638 2.487-3.002 3.025l-0.036 0.013c-0.563 0.219-1.413 0.481-2.969 0.55-1.688 0.075-2.194 0.094-6.464 0.094s-4.782-0.019-6.464-0.094c-1.563-0.069-2.407-0.331-2.969-0.55-0.721-0.269-1.335-0.676-1.837-1.193l-0.001-0.001c-0.517-0.504-0.923-1.118-1.183-1.804l-0.011-0.034c-0.219-0.563-0.481-1.413-0.55-2.969-0.075-1.688-0.094-2.194-0.094-6.464s0.019-4.782 0.094-6.464c0.069-1.563 0.331-2.407 0.55-2.969 0.269-0.722 0.678-1.337 1.198-1.836l0.002-0.002c0.504-0.517 1.118-0.923 1.804-1.183l0.034-0.011c0.563-0.219 1.413-0.481 2.969-0.55 1.688-0.075 2.194-0.094 6.464-0.094 4.276 0 4.782 0.019 6.464 0.094 1.563 0.069 2.407 0.331 2.969 0.55 0.721 0.269 1.335 0.676 1.837 1.193l0.001 0.001c0.517 0.504 0.923 1.118 1.183 1.804l0.011 0.034c0.219 0.563 0.481 1.413 0.55 2.969 0.075 1.688 0.094 2.194 0.094 6.464s-0.019 4.77-0.094 6.458z"></path>
<path d="M16.059 7.783c-4.538 0-8.22 3.682-8.22 8.22s3.682 8.22 8.22 8.22c4.539 0 8.22-3.682 8.22-8.22s-3.682-8.22-8.22-8.22zM16.059 21.335c-2.901-0.058-5.23-2.423-5.23-5.332s2.329-5.274 5.224-5.332l0.005-0c2.901 0.058 5.23 2.423 5.23 5.332s-2.329 5.274-5.224 5.332l-0.005 0zM26.524 7.458c0 1.060-0.859 1.919-1.919 1.919s-1.919-0.859-1.919-1.919v0c0-1.060 0.859-1.919 1.919-1.919s1.919 0.859 1.919 1.919v0z"></path>
</symbol>
<symbol id="facebook" viewBox="0 0 32 32">
<path d="M20.529 5.313h2.921v-5.088c-0.504-0.069-2.237-0.225-4.256-0.225-4.212 0-7.097 2.649-7.097 7.519v4.481h-4.648v5.688h4.648v14.312h5.699v-14.311h4.46l0.708-5.688h-5.169v-3.919c0.001-1.644 0.444-2.769 2.735-2.769z"></path>
</symbol>
<symbol id="envelope" viewBox="0 0 32 32">
<path d="M29 4h-26c-1.654 0-3 1.346-3 3v18c0 1.654 1.346 3 3 3h26c1.654 0 3-1.346 3-3v-18c0-1.654-1.346-3-3-3zM29 6c0.136 0 0.265 0.028 0.383 0.077l-13.383 11.599-13.383-11.599c0.113-0.049 0.245-0.077 0.383-0.077h26zM29 26h-26c-0.552 0-1-0.448-1-1v0-16.81l13.345 11.565c0.174 0.152 0.404 0.245 0.655 0.245s0.481-0.093 0.656-0.246l-0.001 0.001 13.345-11.565v16.81c0 0.552-0.448 1-1 1v0z"></path>
</symbol>
<symbol id="diagram" viewBox="0 0 32 32">
<path fill="#2196f3" style="fill: var(--color3, #2196f3)" d="M14.926 14.965h1.066v4.798h-1.066v-4.797zM19.19 17.097h1.066v2.665h-1.066v-2.665zM10.661 18.696h1.066v1.066h-1.066v-1.066zM7.463 18.163h1.066v1.599h-1.066v-1.599z"></path>
<path fill="#212121" style="fill: var(--color4, #212121)" d="M1.599 28.291h25.587c0.883-0.001 1.598-0.716 1.599-1.599v-2.132c-0.001-0.883-0.716-1.598-1.599-1.599h-0.533v-13.293l3.028-2.868c0.208 0.105 0.452 0.166 0.712 0.166 0.888 0 1.608-0.72 1.608-1.608s-0.72-1.608-1.608-1.608c-0.888 0-1.608 0.72-1.608 1.608 0 0.246 0.055 0.48 0.155 0.689l-0.004-0.010-2.281 2.163v-1.23c-0.001-0.883-0.716-1.598-1.599-1.599h-21.322c-0.883 0.001-1.598 0.716-1.599 1.599v15.992h-0.533c-0.883 0.001-1.598 0.716-1.599 1.599v2.132c0.001 0.883 0.716 1.598 1.599 1.599h0zM30.384 4.837c0.295 0 0.534 0.239 0.534 0.534s-0.239 0.534-0.534 0.534v0c-0.295 0-0.534-0.239-0.534-0.534s0.239-0.534 0.534-0.534v0zM3.198 6.969c0-0.294 0.239-0.533 0.533-0.533h21.322c0.294 0 0.533 0.239 0.533 0.533v2.239l-1.066 1.013v-2.186c0-0.294-0.239-0.533-0.533-0.533v0h-19.19c-0.294 0-0.533 0.239-0.533 0.533v0 13.326c0 0.294 0.239 0.533 0.533 0.533h19.19c0.294 0 0.533-0.239 0.533-0.533v0-9.674l1.066-1.010v12.284h-22.388v-15.992zM7.996 13.899c-0 0-0.001 0-0.002 0-0.883 0-1.598 0.715-1.598 1.598s0.715 1.598 1.598 1.598c0.431 0 0.822-0.17 1.109-0.447l-0.001 0 1.853 0.93c0.069 0.035 0.151 0.056 0.238 0.056 0.158 0 0.3-0.069 0.398-0.179l0-0.001 3.939-4.431 3.872 2.901c0.088 0.067 0.199 0.107 0.32 0.107 0.142 0 0.271-0.055 0.366-0.146l-0 0 3.365-3.188v8.131h-18.124v-12.26h18.124v2.66l-3.771 3.572-3.904-2.927c-0.088-0.067-0.199-0.107-0.32-0.107-0.158 0-0.3 0.069-0.398 0.178l-0 0.001-3.993 4.493-1.493-0.746c0.011-0.064 0.018-0.129 0.020-0.193-0.001-0.883-0.716-1.598-1.599-1.599h-0zM8.529 15.498c0 0.295-0.239 0.533-0.534 0.533s-0.534-0.239-0.534-0.534v0c0-0.295 0.239-0.534 0.534-0.534s0.534 0.239 0.534 0.534v0zM11.727 24.027h5.331v0.533c0 0.294-0.239 0.533-0.533 0.533v0h-4.264c-0.294 0-0.533-0.239-0.533-0.533v0-0.533zM1.066 24.56c0-0.294 0.239-0.533 0.533-0.533h9.062v0.533c0.001 0.883 0.716 1.598 1.599 1.599h4.264c0.883-0.001 1.598-0.716 1.599-1.599v-0.533h9.062c0.294 0 0.533 0.239 0.533 0.533v2.132c0 0.294-0.239 0.533-0.533 0.533v0h-25.587c-0.294 0-0.533-0.239-0.533-0.533v0-2.132z"></path>
</symbol>
<symbol id="company-6" viewBox="7 7 17 17">
<path d="M16.145 15.628c-0.13-0.168-0.208-0.381-0.208-0.612 0-0.023 0.001-0.046 0.002-0.068l-0 0.003v-0.982c0-0.301 0.068-0.53 0.205-0.686s0.371-0.234 0.703-0.234c0.312 0 0.534 0.067 0.665 0.2 0.143 0.17 0.213 0.378 0.197 0.587v0.231h-0.559v-0.234c0-0.010 0-0.021 0-0.033 0-0.069-0.006-0.137-0.017-0.203l0.001 0.007c-0.009-0.055-0.038-0.103-0.080-0.136l-0-0c-0.050-0.034-0.112-0.054-0.178-0.054-0.008 0-0.017 0-0.025 0.001l0.001-0c-0.007-0.001-0.016-0.001-0.024-0.001-0.070 0-0.136 0.021-0.19 0.058l0.001-0.001c-0.046 0.037-0.079 0.089-0.093 0.148l-0 0.002c-0.016 0.080-0.023 0.161-0.022 0.243v1.191c-0.001 0.013-0.002 0.029-0.002 0.045 0 0.106 0.027 0.206 0.075 0.293l-0.002-0.003c0.028 0.035 0.066 0.063 0.111 0.081s0.095 0.024 0.144 0.019c0.007 0.001 0.016 0.001 0.024 0.001 0.065 0 0.125-0.021 0.175-0.056l-0.001 0.001c0.043-0.036 0.073-0.086 0.083-0.144l0-0.001c0.013-0.079 0.019-0.159 0.017-0.239v-0.242h0.559v0.221c0.001 0.018 0.002 0.038 0.002 0.059 0 0.212-0.073 0.407-0.196 0.56l0.001-0.002c-0.128 0.146-0.347 0.219-0.668 0.219s-0.564-0.078-0.702-0.24zM18.47 15.638c-0.141-0.153-0.212-0.375-0.212-0.67v-1.032c0-0.292 0.071-0.512 0.212-0.662s0.377-0.224 0.708-0.224c0.328 0 0.563 0.075 0.704 0.224s0.213 0.37 0.213 0.662v1.032c0 0.292-0.072 0.515-0.215 0.669s-0.377 0.231-0.702 0.231c-0.325 0-0.566-0.078-0.708-0.23zM19.438 15.391c0.043-0.078 0.068-0.171 0.068-0.27 0-0.013-0-0.026-0.001-0.038l0 0.002v-1.264c0.001-0.010 0.001-0.021 0.001-0.033 0-0.098-0.025-0.19-0.068-0.27l0.001 0.003c-0.028-0.036-0.068-0.065-0.114-0.082s-0.097-0.024-0.147-0.018c-0.050-0.006-0.101 0-0.148 0.018s-0.086 0.046-0.115 0.082c-0.043 0.076-0.068 0.167-0.068 0.264 0 0.013 0 0.025 0.001 0.038l-0-0.002v1.27c-0.001 0.011-0.001 0.023-0.001 0.036 0 0.099 0.025 0.192 0.070 0.273l-0.002-0.003c0.065 0.064 0.155 0.103 0.253 0.103 0.003 0 0.006-0 0.009-0h-0c0.049 0 0.098-0.009 0.144-0.027s0.085-0.043 0.118-0.076v-0.006zM20.767 13.080h0.601l0.452 1.905 0.463-1.905h0.585l0.059 2.749h-0.433l-0.046-1.911-0.446 1.911h-0.347l-0.463-1.918-0.043 1.918h-0.437l0.054-2.749zM23.602 13.080h0.937c0.54 0 0.81 0.26 0.81 0.781 0 0.499-0.284 0.747-0.852 0.747h-0.319v1.222h-0.578l0.003-2.749zM24.402 14.255c0.057 0.006 0.115 0.002 0.17-0.013s0.105-0.040 0.148-0.074c0.053-0.072 0.086-0.163 0.086-0.262 0-0.017-0.001-0.034-0.003-0.050l0 0.002c0-0.009 0.001-0.021 0.001-0.032 0-0.078-0.010-0.153-0.030-0.224l0.001 0.006c-0.008-0.027-0.023-0.053-0.043-0.075s-0.045-0.041-0.073-0.055c-0.068-0.028-0.146-0.045-0.229-0.045-0.010 0-0.020 0-0.031 0.001l0.001-0h-0.224v0.822h0.224zM26.182 13.080h0.621l0.637 2.749h-0.539l-0.126-0.634h-0.554l-0.13 0.634h-0.547l0.637-2.749zM26.713 14.877l-0.216-1.154-0.216 1.154h0.433zM27.955 13.080h0.405l0.775 1.568v-1.568h0.48v2.749h-0.385l-0.779-1.637v1.637h-0.496l0.001-2.749zM30.739 14.782l-0.644-1.697h0.542l0.393 1.090 0.369-1.090h0.531l-0.636 1.697v1.048h-0.555v-1.048zM17.038 17.032v0.144h-0.472v1.117h-0.198v-1.117h-0.474v-0.144h1.144zM18.517 18.293h-0.153c-0.001 0-0.003 0-0.005 0-0.014 0-0.028-0.005-0.038-0.012l0 0c-0.011-0.007-0.020-0.017-0.025-0.029l-0-0-0.136-0.3h-0.655l-0.136 0.3c-0.004 0.013-0.012 0.025-0.021 0.034l-0 0c-0.011 0.008-0.025 0.012-0.039 0.012-0.001 0-0.003-0-0.004-0h-0.153l0.578-1.261h0.201l0.585 1.256zM17.559 17.825h0.546l-0.231-0.513c-0.014-0.032-0.029-0.071-0.041-0.112l-0.002-0.007-0.022 0.067-0.021 0.053-0.229 0.512zM19.514 18.169c0.016 0.001 0.035 0.002 0.055 0.002s0.038-0.001 0.057-0.002l-0.003 0c0.065-0.006 0.125-0.020 0.181-0.040l-0.005 0.002 0.077-0.031v-0.284h-0.231c-0.006 0-0.011 0-0.017-0.002s-0.010-0.004-0.014-0.008c-0.004-0.003-0.007-0.006-0.009-0.010s-0.003-0.008-0.003-0.013v-0.097h0.449v0.483c-0.070 0.045-0.151 0.081-0.239 0.102l-0.005 0.001c-0.041 0.011-0.090 0.020-0.141 0.026l-0.004 0c-0.050 0.005-0.109 0.008-0.169 0.008h-0c-0.003 0-0.007 0-0.010 0-0.101 0-0.197-0.017-0.287-0.049l0.006 0.002c-0.089-0.031-0.166-0.076-0.232-0.133l0.001 0.001c-0.062-0.055-0.112-0.121-0.147-0.196l-0.002-0.004c-0.034-0.074-0.053-0.161-0.053-0.252 0-0.003 0-0.007 0-0.010v0c-0-0.008-0.001-0.017-0.001-0.026 0-0.175 0.078-0.331 0.201-0.437l0.001-0.001c0.065-0.056 0.142-0.101 0.226-0.13l0.005-0.001c0.090-0.030 0.193-0.047 0.3-0.047 0.003 0 0.007 0 0.011 0h-0.001c0.054 0 0.108 0.004 0.161 0.011 0.095 0.014 0.18 0.043 0.258 0.084l-0.004-0.002c0.035 0.020 0.069 0.042 0.101 0.066l-0.056 0.078c-0.004 0.007-0.011 0.013-0.019 0.017s-0.017 0.007-0.026 0.007c-0.013-0-0.026-0.004-0.036-0.010l0 0c-0.024-0.011-0.043-0.021-0.061-0.032l0.004 0.002c-0.053-0.029-0.114-0.051-0.18-0.062l-0.003-0c-0.042-0.007-0.091-0.011-0.14-0.011-0.002 0-0.005 0-0.007 0h0c-0.003-0-0.006-0-0.009-0-0.077 0-0.15 0.013-0.219 0.036l0.005-0.001c-0.128 0.040-0.228 0.134-0.277 0.254l-0.001 0.003c-0.025 0.062-0.039 0.134-0.039 0.21s0.014 0.148 0.040 0.214l-0.001-0.004c0.058 0.12 0.158 0.213 0.282 0.258l0.003 0.001c0.074 0.022 0.151 0.030 0.229 0.025zM21.357 18.149h0.631v0.144h-0.825v-1.261h0.198l-0.005 1.117zM22.645 18.293h-0.198v-1.261h0.198v1.261zM23.381 17.038c0.012 0.006 0.022 0.014 0.030 0.023l0 0 0.845 0.951c-0-0.007-0.001-0.015-0.001-0.023s0-0.016 0.001-0.024l-0 0.001v-0.94h0.172v1.266h-0.099c-0.002 0-0.005 0-0.007 0-0.013 0-0.025-0.003-0.036-0.008l0.001 0c-0.012-0.006-0.023-0.014-0.031-0.024l-0-0-0.844-0.95v0.981h-0.165v-1.261h0.103c0.011 0 0.022 0.002 0.032 0.006zM25.885 17.032v0.139h-0.701v0.416h0.568v0.134h-0.568v0.43h0.701v0.139h-0.904v-1.258h0.904zM5.161 9.244l8.781 2.153v7.543l-8.781-2.152v-7.544zM4.598 8.601v8.554l9.907 2.429v-8.553l-9.907-2.43z"></path>
<path d="M9.908 23.555l-9.908-2.431v-8.553l9.908 2.43v8.554z"></path>
<path d="M4.762 9.148l8.667 2.126-3.686 3.183-8.668-2.127 3.687-3.182zM4.598 8.601l-4.598 3.97 9.908 2.43 4.597-3.97-9.907-2.43zM10.465 23.074l4.040-3.488-4.040-0.991v4.48z"></path>
</symbol>
<symbol id="company-5" viewBox="4 2 27 27">
<path d="M2.416 23.738c0.124 0.14 0.19 0.316 0.186 0.496 0.006 0.118-0.016 0.235-0.066 0.344s-0.126 0.205-0.222 0.283c-0.24 0.166-0.538 0.248-0.839 0.229h-1.475v-3.145h1.445c0.285-0.017 0.568 0.056 0.8 0.209 0.093 0.072 0.167 0.162 0.216 0.264s0.071 0.213 0.064 0.324c0 0.009 0.001 0.019 0.001 0.029 0 0.173-0.064 0.332-0.169 0.453l0.001-0.001c-0.113 0.124-0.264 0.212-0.435 0.245l-0.005 0.001c0.199 0.033 0.371 0.13 0.497 0.268l0.001 0.001zM0.686 23.264h0.617c0.14 0.009 0.28-0.028 0.393-0.104 0.046-0.038 0.082-0.086 0.105-0.139s0.032-0.111 0.027-0.168c0.004-0.057-0.005-0.114-0.028-0.167s-0.058-0.101-0.103-0.14c-0.099-0.068-0.222-0.108-0.354-0.108-0.018 0-0.035 0.001-0.052 0.002l0.002-0h-0.607v0.825zM1.757 24.47c0.050-0.039 0.089-0.089 0.114-0.144s0.036-0.115 0.032-0.175c0-0.005 0-0.010 0-0.016 0-0.124-0.058-0.235-0.149-0.306l-0.001-0.001c-0.107-0.072-0.238-0.115-0.379-0.115-0.014 0-0.028 0-0.041 0.001l0.002-0h-0.648v0.865h0.656c0.012 0.001 0.025 0.001 0.039 0.001 0.139 0 0.269-0.041 0.377-0.112l-0.003 0.002zM5.369 25.090l-0.804-1.229h-0.302v1.229h-0.691v-3.145h1.309c0.33-0.021 0.656 0.075 0.911 0.267 0.183 0.171 0.293 0.396 0.311 0.634s-0.058 0.475-0.214 0.667c-0.162 0.167-0.377 0.282-0.618 0.319l-0.006 0.001 0.856 1.257h-0.752zM4.264 23.433h0.565c0.393 0 0.589-0.159 0.589-0.476 0.004-0.065-0.007-0.13-0.032-0.191s-0.063-0.116-0.113-0.163c-0.108-0.081-0.245-0.13-0.393-0.13-0.018 0-0.036 0.001-0.054 0.002l0.002-0h-0.572l0.007 0.957zM9.148 24.457h-1.378l-0.243 0.633h-0.725l1.265-3.11h0.784l1.26 3.11h-0.725l-0.238-0.633zM8.963 23.981l-0.503-1.327-0.503 1.327h1.007zM13.878 25.090h-0.686l-1.539-2.139v2.139h-0.685v-3.145h0.685l1.539 2.151v-2.151h0.686v3.145zM17.794 24.338c-0.149 0.242-0.36 0.432-0.612 0.551l-0.009 0.004c-0.299 0.138-0.63 0.206-0.965 0.198h-1.222v-3.145h1.222c0.334-0.008 0.665 0.058 0.965 0.194 0.263 0.121 0.479 0.312 0.621 0.548 0.141 0.256 0.215 0.538 0.215 0.825s-0.074 0.569-0.215 0.825zM17.009 24.262c0.196-0.209 0.304-0.475 0.304-0.751s-0.108-0.542-0.304-0.75c-0.213-0.168-0.485-0.269-0.78-0.269-0.028 0-0.055 0.001-0.083 0.003l0.004-0h-0.476v2.036h0.476c0.314 0.018 0.622-0.078 0.859-0.267zM9.578 4.453s8.858 3.062 8.67 7.493v7.494s-8.851-3.063-8.666-7.494l-0.003-7.493zM26.139 17.685c1.605-1.018 3.52-1.699 5.576-1.895l0.052-0.004v-2.346c-2.327 0.821-4.302 2.311-5.628 4.245z"></path>
<path d="M25.134 18.392c1.369-2.524 3.743-4.472 6.633-5.443v-6.76s-12.615 4.362-12.348 10.671v10.67s0.562-0.195 1.446-0.561c0-0.341 0-0.685 0.040-1.031 0.261-2.929 1.782-5.644 4.228-7.546z"></path>
<path d="M23.934 22.356c0.066-0.74 0.214-1.472 0.441-2.185-1.523 1.643-2.446 3.682-2.638 5.83-0.016 0.175-0.029 0.388-0.034 0.604l-0 0.011c0.716-0.315 1.55-0.708 2.426-1.171-0.151-0.654-0.237-1.405-0.237-2.176 0-0.322 0.015-0.64 0.044-0.954l-0.003 0.040zM24.436 22.394c-0.025 0.26-0.039 0.562-0.039 0.867 0 0.684 0.071 1.351 0.206 1.994l-0.011-0.063c3.446-1.888 7.319-4.806 7.17-8.332v-0.307c-2.462 0.252-4.766 1.238-6.557 2.805-0.395 0.888-0.668 1.918-0.765 2.998l-0.003 0.038z"></path>
</symbol>
<symbol id="company-4" viewBox="4 7 17 17">
<path d="M4.949 13.027h-0.001c-0.903 0-1.635 0.65-1.635 1.453v0.001c0 0.802 0.732 1.453 1.635 1.453h0.001c0.903 0 1.635-0.65 1.635-1.453v-0.001c0-0.802-0.732-1.453-1.635-1.453zM17.015 12.563c-0.003-1.114-0.502-2.182-1.388-2.97s-2.088-1.232-3.342-1.234c-1.254 0.002-2.457 0.446-3.344 1.234s-1.386 1.856-1.389 2.971v6.145s9.462-0.937 9.463-6.144v-0.001zM0 20.725c0.002 0.775 0.35 1.518 0.967 2.067s1.453 0.857 2.325 0.86c0.872-0.002 1.708-0.311 2.325-0.859s0.964-1.291 0.967-2.066v-4.276s-6.584 0.652-6.584 4.275zM3.292 21.491c-0.171 0-0.337-0.045-0.479-0.129s-0.252-0.204-0.317-0.344c-0.065-0.14-0.082-0.294-0.049-0.443s0.115-0.285 0.236-0.392 0.274-0.18 0.441-0.21c0.167-0.030 0.341-0.014 0.498 0.044s0.292 0.156 0.387 0.282c0.091 0.117 0.146 0.267 0.146 0.429 0 0.217-0.098 0.411-0.252 0.54l-0.001 0.001c-0.080 0.071-0.175 0.128-0.28 0.167s-0.217 0.059-0.331 0.059v-0.003zM9.945 21.069h-0.635v0.656h-0.331v-1.606h1.046v0.268h-0.715v0.415h0.635v0.267zM11.536 20.958c0 0.158-0.028 0.297-0.084 0.416-0.102 0.222-0.323 0.373-0.579 0.373-0.006 0-0.012-0-0.019-0l0.001 0c-0.004 0-0.010 0-0.015 0-0.256 0-0.478-0.149-0.583-0.365l-0.002-0.004c-0.055-0.117-0.087-0.254-0.087-0.398 0-0.004 0-0.008 0-0.012v0.001-0.079c0-0.158 0.028-0.297 0.085-0.417 0.103-0.223 0.324-0.374 0.581-0.374 0.006 0 0.013 0 0.019 0l-0.001-0c0.006-0 0.014-0 0.021-0 0.256 0 0.476 0.152 0.575 0.37l0.002 0.004c0.054 0.117 0.086 0.253 0.086 0.398 0 0.006-0 0.013-0 0.019v-0.001 0.072zM11.201 20.886c0-0.168-0.030-0.296-0.090-0.384s-0.146-0.131-0.258-0.131c-0.111 0-0.197 0.043-0.257 0.13s-0.091 0.212-0.092 0.379v0.078c0 0.164 0.030 0.291 0.090 0.382s0.147 0.136 0.26 0.136c0.111 0 0.196-0.043 0.256-0.13s0.090-0.215 0.090-0.382v-0.078zM12.609 21.304c0-0.063-0.022-0.11-0.066-0.143s-0.124-0.069-0.238-0.106c-0.106-0.033-0.196-0.070-0.282-0.114l0.010 0.005c-0.182-0.099-0.274-0.231-0.274-0.398 0-0.087 0.024-0.164 0.073-0.232s0.12-0.122 0.211-0.16c0.092-0.038 0.195-0.057 0.309-0.057s0.217 0.021 0.307 0.063c0.168 0.073 0.283 0.237 0.283 0.428 0 0.002 0 0.004-0 0.005v-0h-0.331c0-0.074-0.023-0.131-0.069-0.171s-0.111-0.062-0.195-0.062c-0.081 0-0.144 0.017-0.189 0.052s-0.067 0.079-0.067 0.135c0 0.052 0.026 0.096 0.078 0.131s0.131 0.068 0.233 0.099c0.188 0.057 0.325 0.127 0.411 0.211s0.129 0.188 0.129 0.313c0 0.139-0.053 0.248-0.158 0.328s-0.247 0.118-0.425 0.118c-0.124 0-0.236-0.022-0.338-0.067s-0.179-0.108-0.233-0.186c-0.050-0.074-0.079-0.166-0.079-0.264 0-0.004 0-0.007 0-0.011v0.001h0.332c0 0.177 0.106 0.266 0.318 0.266 0.079 0 0.14-0.016 0.184-0.047s0.066-0.077 0.066-0.135zM14.375 20.387h-0.492v1.338h-0.331v-1.338h-0.485v-0.268h1.308v0.268zM15.531 21.029h-0.635v0.43h0.746v0.266h-1.076v-1.606h1.074v0.268h-0.743v0.383h0.635v0.259zM16.43 21.137h-0.264v0.588h-0.331v-1.606h0.597c0.19 0 0.336 0.042 0.439 0.127s0.154 0.204 0.154 0.358c0 0.11-0.024 0.201-0.072 0.275s-0.119 0.131-0.215 0.174l0.347 0.656v0.015h-0.355l-0.301-0.588zM16.166 20.869h0.267c0.083 0 0.147-0.021 0.193-0.063s0.068-0.101 0.068-0.175c0-0.076-0.022-0.135-0.065-0.179s-0.108-0.065-0.197-0.065h-0.266v0.482zM18.171 21.159v0.566h-0.331v-1.606h0.626c0.121 0 0.227 0.022 0.318 0.066s0.163 0.107 0.212 0.189c0.047 0.077 0.074 0.169 0.074 0.269 0 0.003-0 0.006-0 0.009v-0c0 0.157-0.054 0.282-0.162 0.373s-0.256 0.136-0.447 0.136h-0.29zM18.171 20.891h0.296c0.088 0 0.154-0.021 0.2-0.062s0.070-0.1 0.070-0.176c0-0.079-0.023-0.142-0.070-0.191s-0.11-0.074-0.192-0.075h-0.303v0.504zM20.265 21.029h-0.635v0.43h0.746v0.266h-1.076v-1.606h1.074v0.268h-0.743v0.383h0.635v0.259zM21.8 20.387h-0.492v1.338h-0.331v-1.338h-0.485v-0.268h1.308v0.268zM22.956 21.029h-0.635v0.43h0.746v0.266h-1.076v-1.606h1.074v0.268h-0.743v0.383h0.635v0.259zM23.855 21.137h-0.264v0.588h-0.331v-1.606h0.597c0.19 0 0.336 0.042 0.439 0.127s0.154 0.204 0.154 0.358c0 0.11-0.024 0.201-0.072 0.275s-0.119 0.131-0.215 0.174l0.347 0.656v0.015h-0.355l-0.301-0.588zM23.591 20.869h0.267c0.083 0 0.147-0.021 0.193-0.063s0.068-0.101 0.068-0.175c0-0.076-0.022-0.135-0.065-0.179s-0.108-0.065-0.197-0.065h-0.266v0.482zM25.536 21.304c0-0.063-0.022-0.11-0.066-0.143s-0.124-0.069-0.238-0.106c-0.106-0.033-0.196-0.070-0.282-0.114l0.010 0.005c-0.182-0.099-0.274-0.231-0.274-0.398 0-0.087 0.024-0.164 0.073-0.232s0.119-0.122 0.211-0.16c0.092-0.038 0.195-0.057 0.309-0.057s0.217 0.021 0.307 0.063c0.168 0.073 0.283 0.237 0.283 0.428 0 0.002 0 0.004-0 0.005v-0h-0.331c0-0.074-0.023-0.131-0.069-0.171s-0.111-0.062-0.195-0.062c-0.081 0-0.144 0.017-0.189 0.052s-0.067 0.079-0.067 0.135c0 0.052 0.026 0.096 0.078 0.131s0.131 0.068 0.233 0.099c0.188 0.057 0.325 0.127 0.411 0.211s0.129 0.188 0.129 0.313c0 0.139-0.053 0.248-0.158 0.328s-0.247 0.118-0.425 0.118c-0.124 0-0.236-0.022-0.337-0.067s-0.179-0.108-0.233-0.186c-0.050-0.074-0.079-0.166-0.079-0.264 0-0.004 0-0.007 0-0.011v0.001h0.332c0 0.177 0.106 0.266 0.318 0.266 0.079 0 0.14-0.016 0.184-0.047s0.066-0.077 0.066-0.135z"></path>
</symbol>
<symbol id="company-3" viewBox="0 0 32 32">
<path d="M5.267 30.294c0.023 0.001 0.044 0.010 0.060 0.024l-0-0 0.155 0.148c-0.12 0.12-0.269 0.216-0.436 0.281-0.172 0.064-0.371 0.101-0.579 0.101-0.014 0-0.028-0-0.042-0.001l0.002 0c-0.009 0-0.020 0-0.031 0-0.198 0-0.387-0.035-0.563-0.098l0.012 0.004c-0.17-0.061-0.316-0.152-0.439-0.267l0.001 0.001c-0.12-0.113-0.215-0.25-0.28-0.403l-0.003-0.008c-0.063-0.152-0.099-0.328-0.099-0.512 0-0.005 0-0.010 0-0.016v0.001c-0-0.008-0-0.018-0-0.028 0-0.362 0.157-0.687 0.407-0.911l0.001-0.001c0.132-0.116 0.291-0.207 0.465-0.268 0.191-0.064 0.394-0.096 0.599-0.094 0.19-0.004 0.379 0.025 0.556 0.086 0.154 0.058 0.295 0.138 0.417 0.238l-0.13 0.158c-0.009 0.011-0.020 0.021-0.032 0.029l-0.001 0c-0.013 0.008-0.029 0.012-0.046 0.012-0.002 0-0.004-0-0.006-0h0c-0.021-0.001-0.040-0.007-0.057-0.017l0.001 0-0.070-0.042-0.097-0.054c-0.089-0.043-0.192-0.076-0.299-0.093l-0.007-0.001c-0.065-0.011-0.139-0.017-0.215-0.017-0.005 0-0.011 0-0.016 0h0.001c-0.006-0-0.012-0-0.019-0-0.147 0-0.289 0.026-0.42 0.074l0.008-0.003c-0.13 0.046-0.242 0.114-0.338 0.2l0.001-0.001c-0.093 0.087-0.167 0.193-0.217 0.311l-0.002 0.006c-0.050 0.118-0.079 0.255-0.079 0.398 0 0.007 0 0.014 0 0.021l-0-0.001c-0.002 0.145 0.025 0.288 0.079 0.425 0.047 0.116 0.12 0.223 0.215 0.315 0.089 0.085 0.197 0.152 0.316 0.193l0.006 0.002c0.127 0.046 0.262 0.068 0.399 0.067 0.079 0.001 0.158-0.003 0.237-0.013 0.197-0.021 0.373-0.099 0.513-0.218l-0.001 0.001c0.020-0.016 0.046-0.027 0.074-0.027h0zM9.745 29.549c0.002 0.179-0.033 0.356-0.105 0.524-0.063 0.152-0.163 0.291-0.292 0.407s-0.286 0.207-0.458 0.267c-0.38 0.126-0.799 0.126-1.179 0-0.176-0.063-0.328-0.154-0.457-0.269l0.001 0.001c-0.124-0.112-0.224-0.249-0.292-0.403l-0.003-0.008c-0.14-0.339-0.14-0.71 0-1.050 0.066-0.153 0.166-0.293 0.295-0.413 0.13-0.112 0.285-0.2 0.456-0.258 0.379-0.128 0.8-0.128 1.179 0 0.172 0.061 0.328 0.152 0.458 0.268 0.128 0.117 0.227 0.255 0.293 0.406 0.072 0.169 0.107 0.347 0.105 0.527zM9.338 29.549c0-0.007 0-0.014 0-0.022 0-0.144-0.027-0.281-0.077-0.407l0.003 0.008c-0.094-0.243-0.287-0.43-0.529-0.512l-0.006-0.002c-0.128-0.044-0.275-0.069-0.428-0.069s-0.301 0.025-0.438 0.072l0.010-0.003c-0.128 0.045-0.237 0.113-0.328 0.199l0-0c-0.091 0.086-0.162 0.191-0.207 0.309l-0.002 0.006c-0.047 0.125-0.074 0.27-0.074 0.421s0.027 0.296 0.077 0.43l-0.003-0.009c0.094 0.243 0.288 0.429 0.531 0.51l0.006 0.002c0.276 0.090 0.581 0.090 0.857 0 0.127-0.045 0.237-0.112 0.329-0.198l-0.001 0c0.089-0.087 0.159-0.192 0.205-0.309l0.002-0.006c0.047-0.118 0.074-0.256 0.074-0.399 0-0.008-0-0.015-0-0.023l0 0.001zM12.801 29.991l0.041 0.094c0.015-0.034 0.029-0.064 0.045-0.094 0.015-0.032 0.032-0.063 0.050-0.093l0.991-1.565c0.019-0.027 0.037-0.044 0.056-0.049s0.041-0.009 0.064-0.009c0.006 0 0.012 0 0.017 0.001l-0.001-0h0.293v2.545h-0.347v-1.95c-0.001-0.013-0.002-0.029-0.002-0.044s0.001-0.031 0.002-0.046l-0 0.002-0.997 1.587c-0.013 0.024-0.033 0.044-0.058 0.058s-0.055 0.021-0.085 0.021h-0.056c-0.030 0-0.060-0.007-0.085-0.021s-0.046-0.034-0.058-0.058l-1.026-1.597v2.043h-0.335v-2.54h0.293c0.004-0 0.009-0 0.014-0 0.024 0 0.047 0.003 0.069 0.009l-0.002-0c0.024 0.010 0.043 0.028 0.054 0.049l1.012 1.567c0.020 0.029 0.037 0.059 0.050 0.091zM16.529 29.864v0.953h-0.388v-2.542h0.865c0.163-0.003 0.326 0.016 0.483 0.056 0.13 0.032 0.244 0.087 0.344 0.16l-0.003-0.002c0.083 0.066 0.149 0.149 0.192 0.245l0.002 0.004c0.042 0.092 0.066 0.199 0.066 0.311 0 0.005-0 0.010-0 0.014v-0.001c0 0.003 0 0.006 0 0.009 0 0.115-0.027 0.223-0.074 0.32l0.002-0.004c-0.050 0.102-0.121 0.187-0.207 0.253l-0.002 0.001c-0.097 0.075-0.212 0.133-0.336 0.166l-0.007 0.002c-0.131 0.038-0.281 0.059-0.436 0.059-0.011 0-0.022-0-0.033-0l-0.467-0.007zM16.529 29.592h0.469c0.004 0 0.008 0 0.012 0 0.102 0 0.202-0.014 0.295-0.041l-0.008 0.002c0.083-0.024 0.155-0.062 0.218-0.111l-0.001 0.001c0.11-0.090 0.179-0.226 0.179-0.377 0-0.002 0-0.003-0-0.005v0c0.004-0.071-0.009-0.141-0.039-0.207s-0.076-0.125-0.136-0.174c-0.129-0.087-0.289-0.138-0.46-0.138-0.022 0-0.043 0.001-0.065 0.003l0.003-0h-0.469v1.048zM21.741 30.821h-0.306c-0.002 0-0.004 0-0.007 0-0.029 0-0.056-0.009-0.079-0.024l0 0c-0.021-0.015-0.038-0.035-0.050-0.058l-0-0.001-0.264-0.615h-1.324l-0.273 0.615c-0.011 0.023-0.028 0.043-0.049 0.057l-0 0c-0.023 0.016-0.052 0.025-0.082 0.025-0.002 0-0.003-0-0.005-0h-0.306l1.163-2.546h0.403l1.179 2.546zM19.821 29.876h1.093l-0.461-1.036c-0.030-0.065-0.060-0.145-0.084-0.227l-0.003-0.012-0.045 0.133c-0.014 0.040-0.029 0.078-0.043 0.108l-0.458 1.034zM23.416 28.288c0.023 0.011 0.042 0.026 0.058 0.045l0 0 1.697 1.919v-1.976h0.347v2.545h-0.194c-0.002 0-0.005 0-0.008 0-0.053 0-0.101-0.024-0.133-0.062l-0-0-1.695-1.917c0.001 0.013 0.002 0.029 0.002 0.044s-0.001 0.031-0.002 0.046l0-0.002v1.891h-0.347v-2.545h0.206c0.002-0 0.005-0 0.007-0 0.023 0 0.044 0.004 0.064 0.013l-0.001-0zM28.375 29.809v1.011h-0.388v-1.011l-1.072-1.533h0.347c0.003-0 0.006-0 0.009-0 0.027 0 0.053 0.008 0.074 0.023l-0-0c0.021 0.016 0.038 0.035 0.051 0.056l0.001 0.001 0.671 0.989c0.027 0.042 0.050 0.081 0.070 0.118s0.035 0.072 0.049 0.108l0.050-0.11c0.021-0.045 0.043-0.083 0.068-0.119l-0.002 0.003 0.661-0.996c0.015-0.020 0.031-0.038 0.050-0.054l0-0c0.021-0.016 0.048-0.025 0.076-0.025 0.002 0 0.005 0 0.007 0h0.351l-1.074 1.54zM12.609 24.004c0.169 0.019 0.339 0.034 0.512 0.047 2.616-1.017 4.829-2.681 6.363-4.785s2.319-4.553 2.259-7.043l-2.883-2.505c0.586 2.651 0.312 5.39-0.792 7.913s-2.994 4.729-5.459 6.372z"></path>
<path d="M11.579 23.888l0.078 0.013c2.634-1.637 4.642-3.923 5.765-6.562s1.308-5.51 0.533-8.242l-4.106-3.568c1.661 2.933 2.33 6.215 1.928 9.464s-1.857 6.334-4.196 8.893zM25.506 15.165c-0.698 2.735-2.392 5.202-4.832 7.035-0.666 0.507-1.418 0.983-2.21 1.392l-0.086 0.040c1.986-0.507 3.812-1.404 5.337-2.621s2.707-2.723 3.456-4.4l-1.665-1.445z"></path>
<path d="M24.853 14.763l-2.371-2.060c-0.045 2.349-0.814 4.644-2.226 6.648s-3.416 3.642-5.803 4.745h0.012c0.532 0 1.064-0.028 1.592-0.083 2.231-0.791 4.202-2.050 5.737-3.664s2.586-3.533 3.060-5.586zM11.923 4.026l-2.829-2.461c-2.529 0.849-4.704 2.342-6.24 4.282s-2.362 4.239-2.37 6.595c0.009 2.603 1.018 5.128 2.865 7.177s4.429 3.504 7.335 4.135c2.594-2.746 4.113-6.14 4.336-9.688s-0.862-7.065-3.097-10.040zM31.388 14.384c-0.010-3.088-1.427-6.047-3.94-8.23s-5.919-3.414-9.473-3.423c-0.008 0-0.017-0-0.026-0-1.709 0-3.352 0.284-4.883 0.809l0.106-0.032 17.32 15.048c0.593-1.33 0.897-2.744 0.896-4.171z"></path>
</symbol>
<symbol id="company-2" viewBox="0 0 32 32">
<path d="M14.224 1.806h-0.084c-0.108-0.006-0.243-0.012-0.379-0.014l-0.009-0h-0.28c-0.244 0-0.494 0.006-0.741 0.019-0.008-0-0.018-0.001-0.028-0.001s-0.020 0-0.029 0.001l0.001-0c-2.376 0.139-4.581 0.733-6.575 1.696l0.104-0.045-0.266 0.128v13.625l0.623-0.211c0.404-0.148 0.982-0.323 1.569-0.477l0.162-0.036c1.488-0.398 3.202-0.638 4.967-0.662l0.015-0v1.79c-0.237 0.002-0.465 0.009-0.693 0.021l0.038-0.002h-0.051c-1.399 0.079-2.71 0.289-3.972 0.619l0.139-0.031c-1.59 0.398-3.124 0.996-4.566 1.779v-17.475c1.379-0.82 2.974-1.488 4.663-1.92l0.127-0.028c1.353-0.364 2.908-0.576 4.511-0.582h0.267c0.314 0.008 0.621 0.022 0.909 0.044 0.759 0.053 1.511 0.173 2.249 0.358v1.762c-0.628-0.154-1.372-0.271-2.133-0.326l-0.046-0.003-0.045-0.004c-0.152-0.013-0.304-0.026-0.446-0.026zM17.325 3.607c0.391 0.030 0.796 0.044 1.205 0.044 1.689-0.006 3.324-0.228 4.882-0.639l-0.135 0.030c1.589-0.4 3.123-0.998 4.564-1.781v17.163c-1.38 0.82-2.975 1.488-4.665 1.92l-0.127 0.028c-1.353 0.362-2.908 0.573-4.51 0.581l-0.005 0c-0.033 0-0.072 0-0.111 0-1.177 0-2.319-0.148-3.409-0.425l0.095 0.021v-17.275c0.265 0.061 0.537 0.117 0.814 0.164 0.455 0.077 0.934 0.133 1.401 0.167zM26.060 3.74l-0.623 0.21c-0.573 0.192-1.15 0.365-1.731 0.518-1.551 0.415-3.332 0.656-5.169 0.663h-0.004c-0.406 0-0.78-0.011-1.141-0.034l-0.497-0.033v14.017l0.427 0.038c0.395 0.034 0.803 0.052 1.214 0.052 1.45-0.007 2.853-0.198 4.19-0.553l-0.116 0.026c1.221-0.31 2.281-0.702 3.286-1.189l-0.102 0.045 0.266-0.128v-13.63zM5.377 25.977c-0.166-0.173-0.4-0.281-0.658-0.281-0.012 0-0.024 0-0.037 0.001l0.002-0c-0.004-0-0.009-0-0.013-0-0.139 0-0.272 0.028-0.394 0.078l0.007-0.003c-0.236 0.096-0.419 0.281-0.51 0.512l-0.002 0.006c-0.046 0.112-0.072 0.241-0.072 0.377 0 0.003 0 0.007 0 0.010v-0.001 2.335c-0.006 0.165 0.026 0.328 0.092 0.479 0.055 0.12 0.135 0.226 0.234 0.313 0.089 0.076 0.197 0.133 0.315 0.165l0.006 0.001c0.114 0.032 0.231 0.048 0.349 0.049 0.402-0.004 0.746-0.252 0.89-0.604l0.002-0.006c0.047-0.109 0.075-0.236 0.075-0.37 0-0.001 0-0.001 0-0.002v0-0.261h-0.61v0.208c0 0.005 0 0.010 0 0.016 0 0.069-0.013 0.135-0.037 0.196l0.001-0.004c-0.021 0.052-0.051 0.095-0.089 0.131l-0 0c-0.036 0.029-0.079 0.052-0.125 0.066l-0.003 0.001c-0.038 0.013-0.082 0.021-0.128 0.022h-0c-0.010 0.001-0.022 0.002-0.034 0.002-0.103 0-0.194-0.049-0.252-0.126l-0.001-0.001c-0.051-0.082-0.082-0.181-0.082-0.288 0-0.009 0-0.018 0.001-0.027l-0 0.001v-2.177c-0-0.007-0-0.016-0-0.024 0-0.118 0.028-0.23 0.077-0.329l-0.002 0.004c0.056-0.087 0.152-0.143 0.261-0.143 0.013 0 0.026 0.001 0.039 0.002l-0.002-0c0.003-0 0.006-0 0.009-0 0.107 0 0.202 0.051 0.263 0.13l0.001 0.001c0.068 0.090 0.104 0.2 0.101 0.313v0.202h0.604v-0.238c0-0.002 0-0.005 0-0.008 0-0.281-0.106-0.537-0.28-0.73l0.001 0.001zM9.002 25.95c-0.184-0.16-0.425-0.258-0.69-0.258s-0.506 0.098-0.691 0.259l0.001-0.001c-0.099 0.090-0.179 0.198-0.235 0.321l-0.002 0.006c-0.056 0.128-0.089 0.277-0.089 0.434 0 0.006 0 0.013 0 0.019v-0.001 2.239c-0 0.009-0 0.019-0 0.029 0 0.156 0.033 0.303 0.092 0.437l-0.003-0.007c0.055 0.12 0.136 0.227 0.237 0.313 0.090 0.084 0.197 0.151 0.316 0.195l0.006 0.002c0.108 0.042 0.233 0.067 0.364 0.067s0.256-0.024 0.371-0.069l-0.007 0.002c0.121-0.044 0.233-0.111 0.33-0.197 0.096-0.086 0.173-0.19 0.228-0.307l0.002-0.006c0.056-0.127 0.089-0.275 0.089-0.43 0-0.010-0-0.020-0-0.030l0 0.001v-2.239c0-0.007 0-0.014 0-0.022 0-0.155-0.033-0.303-0.092-0.437l0.003 0.007c-0.057-0.128-0.135-0.236-0.23-0.327l-0-0zM8.718 28.969c0.001 0.010 0.001 0.022 0.001 0.034 0 0.114-0.047 0.216-0.122 0.29l-0 0c-0.077 0.065-0.177 0.105-0.287 0.105s-0.21-0.040-0.288-0.105l0.001 0.001c-0.076-0.072-0.123-0.174-0.123-0.287 0-0.013 0.001-0.026 0.002-0.039l-0 0.002v-2.239c-0.001-0.010-0.001-0.022-0.001-0.034 0-0.114 0.047-0.216 0.122-0.29l0-0c0.077-0.065 0.177-0.105 0.287-0.105s0.21 0.040 0.288 0.105l-0.001-0.001c0.076 0.072 0.123 0.174 0.123 0.287 0 0.013-0.001 0.026-0.002 0.039l0-0.002v2.239zM13.764 29.969v-4.239h-0.587l-0.771 2.244h-0.011l-0.777-2.244h-0.581v4.239h0.606v-2.579h0.011l0.593 1.823h0.302l0.598-1.823h0.011v2.579h0.606zM17.205 26.027c-0.092-0.103-0.207-0.182-0.337-0.23l-0.006-0.002c-0.125-0.042-0.27-0.066-0.419-0.066-0.007 0-0.014 0-0.021 0h-0.899v4.239h0.604v-1.656h0.311c0.189 0.009 0.376-0.031 0.545-0.116 0.139-0.078 0.251-0.188 0.33-0.32l0.002-0.004c0.067-0.106 0.115-0.23 0.138-0.363l0.001-0.006c0.024-0.16 0.035-0.321 0.033-0.482 0.001-0.021 0.001-0.046 0.001-0.070 0-0.19-0.022-0.375-0.063-0.552l0.003 0.016c-0.043-0.153-0.12-0.284-0.223-0.39l0 0zM16.894 27.319c-0.003 0.081-0.024 0.157-0.057 0.224l0.001-0.003c-0.035 0.065-0.089 0.116-0.154 0.148l-0.002 0.001c-0.074 0.034-0.161 0.054-0.253 0.054-0.011 0-0.023-0-0.034-0.001l0.002 0h-0.276v-1.441h0.311c0.009-0 0.019-0.001 0.029-0.001 0.088 0 0.172 0.020 0.247 0.055l-0.003-0.002c0.062 0.037 0.111 0.090 0.141 0.155l0.001 0.002c0.032 0.069 0.051 0.15 0.053 0.235l0 0.001v0.282c0 0.099 0.006 0.2 0 0.291h-0.006zM20.066 25.73h-0.495l-0.934 4.239h0.604l0.177-0.911h0.823l0.177 0.911h0.604l-0.957-4.239zM19.509 28.481l0.297-1.537h0.011l0.296 1.537h-0.604zM23.969 28.284h-0.011l-0.912-2.554h-0.581v4.239h0.604v-2.549h0.012l0.923 2.549h0.568v-4.239h-0.604v2.554zM27.66 25.73l-0.486 1.685h-0.012l-0.486-1.685h-0.64l0.83 2.447v1.792h0.604v-1.792l0.83-2.447h-0.64zM3.692 31.166h0.291v0.817h0.198v-0.817h0.29v-0.167h-0.778v0.167zM6.14 30.998l-0.381 0.984h0.21l0.081-0.224h0.392l0.084 0.224h0.215l-0.391-0.984h-0.21zM6.108 31.593l0.134-0.365 0.134 0.365h-0.268zM8.559 31.62h0.227v0.127c-0.063 0.051-0.144 0.082-0.233 0.083h-0c-0.005 0-0.011 0.001-0.017 0.001-0.078 0-0.147-0.036-0.192-0.093l-0-0.001c-0.046-0.065-0.074-0.147-0.074-0.235 0-0.008 0-0.016 0.001-0.023l-0 0.001c0-0.219 0.095-0.329 0.283-0.329 0.007-0.001 0.014-0.001 0.022-0.001 0.097 0 0.178 0.067 0.2 0.157l0 0.001 0.195-0.038c-0.042-0.192-0.181-0.289-0.417-0.289-0.004-0-0.008-0-0.013-0-0.128 0-0.244 0.048-0.332 0.128l0-0c-0.088 0.089-0.142 0.212-0.142 0.347 0 0.011 0 0.023 0.001 0.034l-0-0.002c-0 0.007-0.001 0.016-0.001 0.025 0 0.132 0.048 0.252 0.127 0.345l-0.001-0.001c0.087 0.090 0.208 0.145 0.343 0.145 0.011 0 0.022-0 0.033-0.001l-0.001 0c0.005 0 0.010 0 0.016 0 0.155 0 0.296-0.060 0.401-0.158l-0 0v-0.388h-0.427v0.166zM11.029 30.998h-0.199v0.984h0.69v-0.167h-0.49v-0.817zM13.118 30.998h-0.199v0.984h0.199v-0.984zM15.161 31.656l-0.403-0.657h-0.193v0.984h0.185v-0.643l0.395 0.643h0.198v-0.984h-0.182v0.657zM17.007 31.549h0.49v-0.167h-0.49v-0.216h0.528v-0.167h-0.727v0.984h0.747v-0.167h-0.548v-0.266zM21.484 31.387h-0.388v-0.388h-0.198v0.984h0.198v-0.43h0.388v0.43h0.198v-0.984h-0.198v0.388zM23.342 31.549h0.492v-0.167h-0.492v-0.216h0.529v-0.167h-0.727v0.984h0.746v-0.167h-0.548v-0.266zM25.86 31.549c0.171-0.027 0.258-0.117 0.258-0.274 0.001-0.008 0.002-0.018 0.002-0.028 0-0.078-0.038-0.148-0.097-0.191l-0.001-0c-0.073-0.037-0.158-0.059-0.249-0.059-0.014 0-0.027 0-0.041 0.001l0.002-0h-0.417v0.984h0.198v-0.412h0.039c0.005-0 0.011-0.001 0.017-0.001 0.038 0 0.075 0.008 0.108 0.023l-0.002-0.001c0.029 0.018 0.052 0.042 0.069 0.071l0.001 0.001 0.215 0.313h0.237l-0.12-0.192c-0.054-0.096-0.128-0.175-0.216-0.234l-0.002-0.002zM25.661 31.413h-0.146v-0.247h0.156c0.013-0.001 0.027-0.002 0.042-0.002 0.057 0 0.112 0.009 0.163 0.026l-0.004-0.001c0.014 0.013 0.026 0.029 0.033 0.046 0.006 0.015 0.010 0.032 0.010 0.050 0 0.022-0.005 0.043-0.015 0.062l0-0.001c-0.009 0.017-0.022 0.032-0.037 0.043l-0 0c-0.048 0.015-0.104 0.024-0.162 0.024-0.014 0-0.028-0-0.041-0.002l0.002 0zM27.76 31.549h0.49v-0.167h-0.49v-0.216h0.529v-0.167h-0.729v0.984h0.747v-0.167h-0.548v-0.266z"></path>
</symbol>
<symbol id="company-1" viewBox="0 0 32 32">
<path d="M6.128 0l4.771 4.517-8.856-0.005v21.915h23.149v-8.379l4.766 4.512v-22.559h-23.83zM24.982 17.517l-13.528-12.807h13.528v12.807zM20.782 23.221h-15.076v-14.739h1.066v13.741h14.010v0.998zM9.266 29.344h0.465l-0.811 1.529v0.891h-0.422v-0.891l-0.813-1.529h0.467l0.557 1.147 0.557-1.147zM9.965 31.764l0.196-0.563h0.938l0.198 0.563h0.439l-0.916-2.42h-0.377l-0.914 2.42h0.437zM10.63 29.858l0.351 1.004h-0.701l0.351-1.004zM12.848 30.804c-0.057 0.085-0.091 0.19-0.091 0.303 0 0.001 0 0.003 0 0.004v-0c0 0.204 0.072 0.37 0.214 0.497 0.144 0.126 0.336 0.189 0.575 0.189s0.445-0.065 0.618-0.194l0.136 0.161h0.469l-0.356-0.421c0.14-0.191 0.209-0.435 0.209-0.733h-0.351c0 0.004 0 0.008 0 0.012 0 0.157-0.037 0.306-0.104 0.437l0.003-0.006-0.467-0.552 0.165-0.12c0.1-0.068 0.184-0.152 0.249-0.25l0.002-0.003c0.048-0.078 0.076-0.173 0.076-0.274 0-0.002 0-0.003-0-0.005v0c0-0.003 0-0.007 0-0.010 0-0.149-0.066-0.282-0.17-0.373l-0.001-0c-0.108-0.097-0.251-0.156-0.408-0.156-0.008 0-0.017 0-0.025 0l0.001-0c-0.010-0.001-0.022-0.001-0.034-0.001-0.166 0-0.318 0.063-0.432 0.167l0.001-0c-0.107 0.107-0.174 0.255-0.174 0.419 0 0.011 0 0.021 0.001 0.032l-0-0.001c0 0.078 0.018 0.158 0.055 0.241 0.038 0.083 0.104 0.184 0.198 0.303-0.18 0.129-0.3 0.24-0.361 0.334zM13.94 31.339c-0.104 0.084-0.237 0.135-0.382 0.136h-0c-0.121 0-0.217-0.035-0.289-0.105s-0.108-0.161-0.108-0.273c0-0.13 0.067-0.245 0.2-0.346l0.052-0.037 0.529 0.623zM13.506 30.267c-0.114-0.141-0.171-0.258-0.171-0.351 0-0.081 0.023-0.148 0.070-0.201s0.109-0.080 0.188-0.080c0.073 0 0.133 0.023 0.181 0.068 0.044 0.039 0.072 0.095 0.072 0.158 0 0.001 0 0.002-0 0.003v-0c0 0.003 0 0.006 0 0.009 0 0.090-0.040 0.171-0.103 0.225l-0 0-0.052 0.042-0.184 0.126zM17.445 31.581c0.166-0.145 0.262-0.347 0.286-0.605h-0.419c-0.022 0.173-0.075 0.296-0.158 0.371s-0.207 0.111-0.372 0.111c-0.007 0-0.015 0.001-0.024 0.001-0.161 0-0.303-0.081-0.387-0.205l-0.001-0.002c-0.093-0.137-0.14-0.337-0.14-0.598v-0.214c0.002-0.258 0.052-0.454 0.15-0.587 0.091-0.123 0.235-0.202 0.398-0.202 0.009 0 0.017 0 0.026 0.001l-0.001-0c0.157 0 0.276 0.039 0.357 0.116 0.082 0.076 0.133 0.202 0.153 0.376h0.419c-0.027-0.265-0.121-0.47-0.284-0.615s-0.378-0.218-0.645-0.218c-0.006-0-0.012-0-0.019-0-0.187 0-0.362 0.053-0.51 0.144l0.004-0.002c-0.151 0.094-0.267 0.228-0.347 0.402s-0.121 0.375-0.121 0.603v0.226c0.003 0.223 0.045 0.418 0.125 0.587s0.193 0.299 0.339 0.391c0.14 0.086 0.309 0.136 0.49 0.136 0.007 0 0.014-0 0.021-0l-0.001 0c0.276 0 0.497-0.072 0.663-0.216zM19.917 31.242c0.082-0.18 0.123-0.388 0.123-0.625v-0.135c0-0.008 0-0.017 0-0.026 0-0.215-0.046-0.419-0.13-0.603l0.004 0.009c-0.147-0.328-0.47-0.553-0.846-0.553-0.011 0-0.022 0-0.034 0.001l0.002-0c-0.005-0-0.012-0-0.018-0-0.188 0-0.363 0.054-0.511 0.148l0.004-0.002c-0.155 0.101-0.277 0.241-0.352 0.408l-0.002 0.006c-0.079 0.176-0.125 0.381-0.125 0.597 0 0.010 0 0.020 0 0.030l-0-0.001v0.136c0.001 0.232 0.043 0.436 0.126 0.613 0.079 0.171 0.201 0.311 0.352 0.409l0.004 0.002c0.145 0.090 0.321 0.143 0.51 0.143 0.005 0 0.011-0 0.016-0h-0.001c0.005 0 0.012 0 0.018 0 0.188 0 0.363-0.053 0.511-0.146l-0.004 0.002c0.155-0.1 0.276-0.24 0.35-0.406l0.002-0.006zM19.467 29.874c0.102 0.143 0.153 0.349 0.153 0.617v0.126c0 0.273-0.050 0.48-0.151 0.622-0.090 0.13-0.238 0.214-0.406 0.214-0.008 0-0.016-0-0.024-0.001l0.001 0c-0.005 0-0.011 0-0.017 0-0.171 0-0.323-0.086-0.414-0.217l-0.001-0.002c-0.103-0.145-0.155-0.351-0.155-0.617v-0.14c0.002-0.26 0.054-0.462 0.156-0.603 0.091-0.13 0.24-0.214 0.408-0.214 0.007 0 0.013 0 0.020 0l-0.001-0c0.186 0 0.33 0.072 0.43 0.214z"></path>
</symbol>
<symbol id="clock" viewBox="0 0 32 32">
<path fill="#212121" style="fill: var(--color4, #212121)" d="M31.297 15.301c-0.002-8.452-6.855-15.303-15.308-15.301s-15.303 6.855-15.301 15.308c0.001 6.788 4.422 12.543 10.541 14.545l0.108 0.031c0.057 0.018 0.123 0.028 0.191 0.028 0.125 0 0.242-0.035 0.341-0.095l-0.003 0.002c0.134-0.080 0.234-0.204 0.282-0.352l0.001-0.005 3.865-12.25c1.051-0.006 1.901-0.86 1.901-1.912 0-1.056-0.856-1.912-1.912-1.912-0.301 0-0.587 0.070-0.84 0.194l0.011-0.005-5.106-5.107c-0.115-0.115-0.275-0.187-0.451-0.187-0.352 0-0.638 0.286-0.638 0.638 0 0.176 0.071 0.336 0.187 0.451v0l5.103 5.109c-0.121 0.241-0.191 0.525-0.191 0.826 0 0.601 0.283 1.137 0.723 1.48l0.004 0.003-3.683 11.673c-7.278-2.681-11.004-10.754-8.323-18.032s10.754-11.004 18.032-8.323 11.004 10.754 8.323 18.032c-1.345 3.581-4.003 6.406-7.374 7.937l-0.088 0.036-0.398-1.874c-0.063-0.291-0.319-0.505-0.624-0.505-0.163 0-0.312 0.061-0.425 0.162l0.001-0.001-3.837 3.426c-0.132 0.117-0.214 0.287-0.214 0.477 0 0.283 0.185 0.523 0.441 0.606l0.005 0.001 4.899 1.563c0.058 0.019 0.125 0.030 0.195 0.030 0.352 0 0.638-0.286 0.638-0.638 0-0.047-0.005-0.093-0.015-0.137l0.001 0.004-0.391-1.839c5.528-2.374 9.329-7.772 9.329-14.057 0-0.011 0-0.023-0-0.034v0.002zM15.992 14.664c0.353 0 0.639 0.286 0.639 0.639s-0.286 0.639-0.639 0.639v0c-0.353 0-0.639-0.286-0.639-0.639s0.286-0.639 0.639-0.639v0zM18.093 29.528l2.184-1.948 0.603 2.84-2.787-0.892z"></path>
<path fill="#2196f3" style="fill: var(--color3, #2196f3)" d="M15.354 3.185v1.275c0 0.352 0.286 0.638 0.638 0.638s0.638-0.286 0.638-0.638v-1.275c0-0.352-0.286-0.638-0.638-0.638s-0.638 0.286-0.638 0.638v0zM3.876 14.664c-0.352 0-0.638 0.286-0.638 0.638s0.286 0.638 0.638 0.638h1.275c0.352 0 0.638-0.286 0.638-0.638s-0.286-0.638-0.638-0.638h-1.275zM28.108 15.939c0.352 0 0.638-0.286 0.638-0.638s-0.286-0.638-0.638-0.638h-1.275c-0.352 0-0.638 0.286-0.638 0.638s0.286 0.638 0.638 0.638h1.275z"></path>
</symbol>
<symbol id="astronaut" viewBox="0 0 32 32">
<path fill="#2196f3" style="fill: var(--color3, #2196f3)" d="M31.974 4.524c-0.064-0.191-0.227-0.332-0.427-0.363l-0.003-0-1.91-0.278-0.855-1.731c-0.179-0.365-0.777-0.365-0.956 0l-0.855 1.731-1.91 0.278c-0.259 0.040-0.455 0.262-0.455 0.529 0 0.149 0.061 0.284 0.159 0.381l0 0 1.383 1.348-0.326 1.903c-0.034 0.2 0.048 0.402 0.212 0.522 0.087 0.064 0.195 0.102 0.313 0.102 0.091 0 0.177-0.023 0.252-0.064l-0.003 0.001 1.709-0.899 1.709 0.899c0.071 0.038 0.156 0.060 0.246 0.060 0.296 0 0.536-0.24 0.536-0.536 0-0.031-0.003-0.061-0.008-0.090l0 0.003-0.326-1.903 1.383-1.348c0.099-0.097 0.161-0.233 0.161-0.383 0-0.059-0.009-0.115-0.027-0.168l0.001 0.004zM29.511 5.851c-0.099 0.097-0.161 0.232-0.161 0.382 0 0.032 0.003 0.063 0.008 0.093l-0-0.003 0.191 1.114-1-0.526c-0.072-0.039-0.158-0.062-0.249-0.062s-0.177 0.023-0.252 0.063l0.003-0.001-1.001 0.526 0.191-1.114c0.005-0.027 0.008-0.058 0.008-0.090 0-0.15-0.061-0.285-0.161-0.382l-0-0-0.81-0.789 1.119-0.163c0.177-0.026 0.324-0.137 0.401-0.289l0.001-0.003 0.5-1.013 0.5 1.013c0.078 0.155 0.225 0.265 0.399 0.292l0.003 0 1.119 0.163-0.809 0.789zM26.134 20.522h-1.067v1.067h1.067v-1.067zM26.134 22.656h-1.067v1.067h1.067v-1.067zM27.2 21.589h-1.067v1.067h1.067v-1.067zM25.067 21.589h-1.067v1.067h1.067v-1.067zM22.4 26.389h-1.067v1.067h1.067v-1.067zM22.4 28.522h-1.067v1.067h1.067v-1.067zM23.467 27.456h-1.067v1.067h1.067v-1.067zM21.333 27.456h-1.067v1.067h1.067v-1.067zM16 24.256h-1.067v1.067h1.067v-1.067zM16 26.389h-1.067v1.067h1.067v-1.067zM17.067 25.322h-1.067v1.067h1.067v-1.067zM14.933 25.322h-1.067v1.067h1.067v-1.067zM5.867 6.122h-1.067v1.067h1.067v-1.067zM5.867 8.255h-1.067v1.067h1.067v-1.067z"></path>
<path fill="#2196f3" style="fill: var(--color3, #2196f3)" d="M6.933 7.189h-1.067v1.067h1.067v-1.067zM4.8 7.189h-1.067v1.067h1.067v-1.067z"></path>
<path fill="#212121" style="fill: var(--color4, #212121)" d="M24.715 14.159c-0.28-0.376-0.698-0.636-1.179-0.704l-0.009-0.001c-0.076-0.012-0.164-0.018-0.254-0.018-0.411 0-0.789 0.139-1.090 0.373l0.004-0.003-1.252 0.96-1.898 1.417-1.358-0.541c2.421-1.086 4.114-3.508 4.114-6.32 0-3.823-3.123-6.933-6.961-6.933s-6.961 3.11-6.961 6.933c0 0 0 0.001 0 0.001 0 1.398 0.418 2.698 1.136 3.782l-0.016-0.025-2.769-0.024c-0.009 0-0.015 0.004-0.023 0.005-0.056 0.002-0.109 0.014-0.159 0.032l0.004-0.001-0.038 0.013c-0.006 0.003-0.013 0.003-0.019 0.006l-3.234 1.597-1.893 0.911c-0.024 0.011-0.045 0.023-0.064 0.036l0.001-0.001c-0.482 0.323-0.795 0.866-0.795 1.482 0 0.297 0.073 0.577 0.201 0.823l-0.005-0.010c0.22 0.429 0.595 0.745 1.056 0.889 0.161 0.053 0.346 0.083 0.538 0.083 0.308 0 0.597-0.078 0.85-0.216l-0.009 0.005 1.388-0.738 2.264-1.169 1.357-0.008-6.783 6.75c-0.316 0.315-0.49 0.732-0.49 1.178s0.174 0.863 0.49 1.179c0.325 0.323 0.752 0.485 1.179 0.485s0.854-0.162 1.18-0.485l1.314-1.309 1.741-1.3 0.901 0.897-3.103 3.088c-0.316 0.315-0.49 0.732-0.49 1.178s0.174 0.863 0.49 1.179c0.325 0.323 0.753 0.485 1.18 0.485s0.855-0.162 1.18-0.485l3.483-3.469 1.010-1-0.004-0.004c0.006-0.006 0.015-0.009 0.022-0.015l5.166-5.658 3.471 0.494c0.020 0.003 0.044 0.005 0.068 0.005 0.070 0 0.136-0.014 0.197-0.039l-0.003 0.001c0.018-0.006 0.033-0.015 0.050-0.023 0.019-0.010 0.039-0.015 0.058-0.027l3.213-2.133c0.012-0.008 0.018-0.021 0.029-0.029 0.013-0.010 0.029-0.014 0.041-0.026l1.271-1.191c0.662-0.62 0.753-1.635 0.212-2.362zM2.13 17.77c-0.098 0.054-0.215 0.086-0.34 0.086-0.078 0-0.153-0.012-0.223-0.036l0.005 0.001c-0.294-0.094-0.503-0.365-0.503-0.684 0-0.235 0.113-0.444 0.288-0.574l0.002-0.001 1.314-0.632 0.449 1.312-0.992 0.528zM5.628 15.942l-1.548 0.8-0.439-1.283 2.027-1.001-0.040 1.484zM20.727 9.322c-0.001 0.932-0.222 1.813-0.614 2.592l0.015-0.033-4.181-1.899c-0.044-0.575-0.342-1.073-0.782-1.384l-0.006-0.004 1.464-4.86c2.378 0.756 4.105 2.974 4.105 5.588zM8.938 9.322c0-3.235 2.644-5.867 5.894-5.867 0.253 0 0.5 0.021 0.745 0.052l-1.432 4.754c-0.019-0.001-0.037-0.006-0.057-0.006-1.033 0-1.873 0.837-1.873 1.867s0.84 1.867 1.873 1.867c0.694 0 1.294-0.383 1.618-0.945l3.862 1.755c-1.085 1.456-2.802 2.389-4.737 2.39h-0c-3.25 0-5.894-2.632-5.894-5.867zM14.894 10.122c0 0.441-0.362 0.8-0.806 0.8s-0.806-0.359-0.806-0.8c0-0.441 0.362-0.8 0.806-0.8s0.806 0.359 0.806 0.8zM2.465 25.146c-0.11 0.109-0.261 0.176-0.428 0.176s-0.317-0.067-0.427-0.175l0 0c-0.109-0.107-0.177-0.257-0.177-0.422s0.068-0.315 0.177-0.422l0-0 0.962-0.958 0.851 0.848-0.959 0.955zM5.679 28.88c-0.11 0.109-0.261 0.176-0.428 0.176s-0.317-0.067-0.427-0.175l0 0c-0.109-0.107-0.177-0.257-0.177-0.422s0.068-0.315 0.177-0.422l0-0 0.963-0.959 0.852 0.848-0.96 0.955zM9.16 25.411l-0.002 0.001-1.765 1.76-0.852-0.848 1.765-1.756c0.040-0.040 0.065-0.088 0.090-0.135 0.007-0.014 0.020-0.026 0.026-0.040 0.017-0.041 0.019-0.085 0.026-0.129 0.003-0.025 0.014-0.047 0.014-0.073 0-0.036-0.013-0.070-0.020-0.106-0.006-0.032-0.006-0.065-0.019-0.095-0.025-0.053-0.055-0.098-0.091-0.138l0 0c-0.010-0.012-0.014-0.027-0.025-0.038h-0.001l-0.001-0.002-1.607-1.6c-0.017-0.017-0.039-0.024-0.058-0.038-0.025-0.021-0.054-0.040-0.084-0.057l-0.003-0.001c-0.026-0.013-0.057-0.024-0.089-0.032l-0.004-0.001c-0.030-0.009-0.065-0.017-0.101-0.020l-0.002-0c-0.006-0-0.014-0-0.021-0-0.026 0-0.052 0.002-0.076 0.006l0.003-0c-0.038 0.004-0.074 0.011-0.108 0.021l0.004-0.001c-0.036 0.013-0.067 0.028-0.096 0.046l0.002-0.001c-0.020 0.011-0.042 0.015-0.061 0.029l-1.773 1.324-0.901-0.897 2.399-2.386 4.361 4.289-0.928 0.919zM15.979 18.394c-0.015-0.002-0.030 0.004-0.045 0.003-0.006-0-0.013-0-0.020-0-0.103 0-0.199 0.028-0.282 0.077l0.003-0.001c-0.031 0.018-0.059 0.039-0.083 0.061l0-0c-0.013 0.011-0.028 0.017-0.040 0.029l-4.698 5.146-4.328-4.257 2.833-2.818c0.096-0.097 0.156-0.23 0.156-0.377 0-0.295-0.239-0.534-0.534-0.534-0 0-0.001 0-0.001 0h0v-0.001l-2.219 0.013 0.028-1.607 3.104 0.027c1.263 1.297 3.027 2.101 4.978 2.101 0.001 0 0.002 0 0.004 0h-0c0.437 0 0.864-0.045 1.279-0.123 0.040 0.032 0.079 0.065 0.13 0.085l2.41 0.96 0.331 1.644-3.003-0.427zM20.020 18.572l-0.313-1.558 1.446-1.080 0.947 1.257-2.080 1.381zM23.774 15.741l-0.838 0.785-0.931-1.236 0.831-0.637c0.122-0.093 0.277-0.15 0.445-0.15 0.035 0 0.069 0.002 0.102 0.007l-0.004-0c0.198 0.028 0.367 0.132 0.479 0.282l0.001 0.002c0.088 0.117 0.141 0.265 0.141 0.426 0 0.205-0.087 0.391-0.226 0.521l-0 0z"></path>
<path fill="#212121" style="fill: var(--color4, #212121)" d="M13.602 18.544l-2.143-2.133c-0.097-0.096-0.23-0.155-0.377-0.155s-0.28 0.059-0.377 0.155l0-0-2.142 2.133c-0.096 0.097-0.156 0.231-0.156 0.378s0.059 0.281 0.156 0.378l-0-0 2.142 2.133c0.097 0.096 0.23 0.154 0.377 0.154s0.28-0.059 0.377-0.155l-0 0 2.143-2.133c0.097-0.097 0.156-0.23 0.156-0.378s-0.060-0.281-0.156-0.378v0zM11.083 20.303l-1.387-1.381 1.387-1.381 1.387 1.381-1.387 1.381zM17.164 5.071l-0.258 1.036c0.071 0.018 1.738 0.452 1.738 2.149h1.067c0-2.017-1.666-2.965-2.547-3.185zM19.711 9.322h-1.067v1.067h1.067v-1.067z"></path>
</symbol>
<symbol id="antenna" viewBox="0 0 32 32">
<path fill="#212121" style="fill: var(--color4, #212121)" d="M29.859 22.098l-8.443-8.505 0.937-4.615c0.242 0.094 0.499 0.144 0.758 0.146h0.006c0.008 0 0.017 0 0.026 0 1.192 0 2.159-0.967 2.159-2.159s-0.967-2.159-2.159-2.159c-1.192 0-2.159 0.967-2.159 2.159 0 0.26 0.046 0.508 0.13 0.739l-0.005-0.015-4.96 0.605-8.091-8.133c-0.096-0.098-0.229-0.159-0.377-0.16h-0c-0.146 0.001-0.277 0.060-0.373 0.155l0-0-1.513 1.504c-0.096 0.097-0.156 0.23-0.156 0.377s0.060 0.28 0.156 0.377v0l0.814 0.826c-1.143 2.062-1.816 4.522-1.816 7.139 0 4.105 1.656 7.824 4.336 10.525l-0.001-0.001c0.041 0.040 0.090 0.073 0.143 0.097l0.003 0.001c-0.034 0.18-0.051 0.364-0.052 0.547v6.187h-6.4c-1.472 0.002-2.665 1.195-2.667 2.667v1.067c0 0.295 0.239 0.533 0.533 0.533h24.533c0.294 0 0.533-0.239 0.533-0.533v0-1.067c-0.002-1.472-1.195-2.665-2.667-2.667h-6.4v-2.742c0.915 0.2 1.968 0.317 3.047 0.32h0.002c2.58-0.003 5.005-0.663 7.117-1.822l-0.077 0.039 0.818 0.823c0.096 0.098 0.229 0.159 0.377 0.16h0c0.146-0.001 0.277-0.060 0.373-0.155l-0 0 1.513-1.504c0.096-0.097 0.156-0.23 0.156-0.377s-0.060-0.28-0.156-0.377v0zM22.366 6.233c0.193-0.192 0.458-0.31 0.752-0.31 0.589 0 1.066 0.477 1.066 1.066s-0.477 1.066-1.066 1.066h-0.003c-0.587-0.003-1.061-0.48-1.061-1.067 0-0.295 0.12-0.563 0.314-0.756l0-0h-0.002zM21.11 9.738l-0.598 2.946-1.175-1.182 1.774-1.763zM20.504 8.836l-1.92 1.909-1.485-1.493 3.405-0.415zM23.090 28.8c0.884 0 1.6 0.716 1.6 1.6v0 0.533h-23.467v-0.533c0-0.884 0.716-1.6 1.6-1.6v0h20.267zM15.623 26.667v1.067h-5.333v-1.067h5.333zM10.29 25.6v-4.053c0-1.294 1.196-2.347 2.667-2.347s2.667 1.053 2.667 2.347v4.053h-5.333zM16.69 23.904v-2.357c0-1.882-1.675-3.413-3.733-3.413-0.017-0-0.038-0-0.058-0-1.353 0-2.54 0.707-3.213 1.771l-0.009 0.016c-2.36-2.482-3.811-5.846-3.811-9.55 0-2.314 0.567-4.496 1.569-6.414l-0.036 0.077 18.602 18.708c-1.823 0.947-3.979 1.502-6.266 1.502-1.079 0-2.129-0.124-3.136-0.358l0.093 0.018zM27.979 23.22l-21.057-21.181 0.755-0.752 7.935 7.98c0.004 0 0.006 0.007 0.010 0.010l13.115 13.191-0.757 0.752z"></path>
<path fill="#2196f3" style="fill: var(--color3, #2196f3)" d="M12.961 20.267h-0.005c-0.001 0-0.001 0-0.002 0-0.884 0-1.6 0.716-1.6 1.6s0.715 1.599 1.598 1.6h0.005c0.001 0 0.001 0 0.002 0 0.884 0 1.6-0.716 1.6-1.6s-0.715-1.599-1.598-1.6h-0zM13.335 22.245c-0.094 0.084-0.218 0.135-0.355 0.135-0.295 0-0.534-0.239-0.534-0.534 0-0.137 0.052-0.263 0.137-0.357l-0 0c0.096-0.095 0.227-0.154 0.373-0.155h0c0.294 0 0.532 0.238 0.532 0.532 0 0.148-0.061 0.282-0.159 0.379l-0 0h0.005z"></path>
</symbol>
<symbol id="icon-close" viewBox="0 0 11 11">
<path d="M11 1.108l-1.108-1.108-4.392 4.392-4.392-4.392-1.108 1.108 4.392 4.392-4.392 4.392 1.108 1.108 4.392-4.392 4.392 4.392 1.108-1.108-4.392-4.392 4.392-4.392z"></path>
</symbol>
<symbol id="icon-form-user" viewBox="0 0 18 18">
<path d="M9 9c1.657 0 3-1.343 3-3s-1.343-3-3-3v0c-1.657 0-3 1.343-3 3s1.343 3 3 3v0zM9 10.5c-2.003 0-6 1.005-6 3v0.75c0 0.412 0.337 0.75 0.75 0.75h10.5c0.412 0 0.75-0.338 0.75-0.75v-0.75c0-1.995-3.998-3-6-3z"></path>
</symbol>
<symbol id="icon-form-phone" viewBox="0 0 18 18">
<path d="M13.996 11.123l-1.838-0.21c-0.051-0.006-0.109-0.010-0.169-0.010-0.398 0-0.758 0.161-1.018 0.422l-1.332 1.332c-2.064-1.065-3.704-2.706-4.74-4.709l-0.029-0.061 1.34-1.337c0.261-0.261 0.422-0.621 0.422-1.018 0-0.059-0.004-0.118-0.011-0.176l0.001 0.007-0.21-1.824c-0.087-0.724-0.698-1.28-1.438-1.28-0.001 0-0.001 0-0.002 0h-1.252c-0.818 0-1.498 0.68-1.448 1.497 0.384 6.18 5.327 11.116 11.5 11.5 0.817 0.050 1.498-0.63 1.498-1.448v-1.252c0-0.002 0-0.004 0-0.007 0-0.736-0.554-1.342-1.267-1.424l-0.007-0.001z"></path>
</symbol>
<symbol id="icon-form-email" viewBox="0 0 18 18">
<path d="M15 3h-12c-0.825 0-1.492 0.675-1.492 1.5l-0.008 9c0 0.825 0.675 1.5 1.5 1.5h12c0.825 0 1.5-0.675 1.5-1.5v-9c0-0.825-0.675-1.5-1.5-1.5zM14.7 6.188l-5.302 3.314c-0.113 0.071-0.251 0.113-0.398 0.113s-0.285-0.042-0.401-0.115l0.003 0.002-5.302-3.314c-0.189-0.113-0.313-0.316-0.313-0.549 0-0.352 0.285-0.637 0.637-0.637 0.131 0 0.252 0.039 0.354 0.107l-0.002-0.001 5.025 3.142 5.025-3.143c0.099-0.066 0.22-0.106 0.351-0.106 0.352 0 0.637 0.285 0.637 0.637 0 0.232-0.124 0.436-0.31 0.547l-0.003 0.002z"></path>
</symbol>
<symbol id="icon-check" viewBox="0 0 17 16">
<path d="M2.133 0h12.8c1.178 0 2.133 0.955 2.133 2.133v11.733c0 1.178-0.955 2.133-2.133 2.133h-12.8c-1.178 0-2.133-0.955-2.133-2.133v-11.733c0-1.178 0.955-2.133 2.133-2.133z"></path>
<path fill="#fff" stroke="#fff" stroke-linejoin="miter" stroke-linecap="butt" stroke-miterlimit="4" stroke-width="0.2133" d="M4.221 8.269l-0.074-0.070-0.074 0.069-1.028 0.975 0.081 0.078 3.803 3.627 0.074-0.070 8.085-7.713-0.081-0.077-1.014-0.967-0.074 0.070-6.99 6.662-2.708-2.583z"></path>
</symbol>
<symbol id="icon-send" viewBox="0 0 24 24">
<path fill="#fff" style="fill: var(--color1, #fff)" d="M24 0l-24 13.5 7.67 2.84 11.83-11.090-8.998 12.14 0.007 0.002-0.009-0.002v6.61l4.301-5.018 5.45 2.018 3.749-21z"></path>
</symbol>
</defs>
</svg>
